<svg width="56" height="56" viewBox="0 0 56 56" fill="none" xmlns="http://www.w3.org/2000/svg">
<path d="M40.25 32.375V11.375C40.25 9.92764 39.0724 8.75 37.625 8.75H2.625C1.17764 8.75 0 9.92764 0 11.375V32.375C0 33.8224 1.17764 35 2.625 35H37.625C39.0724 35 40.25 33.8224 40.25 32.375ZM1.75 32.375V11.375C1.75 10.8925 2.14255 10.5 2.625 10.5H37.625C38.1075 10.5 38.5 10.8925 38.5 11.375V32.375C38.5 32.8575 38.1075 33.25 37.625 33.25H2.625C2.14255 33.25 1.75 32.8575 1.75 32.375Z" fill="black"/>
<path d="M53.375 21H42.875C42.3918 21 42 21.3918 42 21.875C42 22.3582 42.3918 22.75 42.875 22.75H53.375C53.8575 22.75 54.25 23.1425 54.25 23.625V28H42.875C42.3918 28 42 28.3918 42 28.875C42 29.3582 42.3918 29.75 42.875 29.75H54.25V44.625C54.25 45.1075 53.8575 45.5 53.375 45.5H18.375C17.8925 45.5 17.5 45.1075 17.5 44.625V37.625C17.5 37.1418 17.1082 36.75 16.625 36.75C16.1418 36.75 15.75 37.1418 15.75 37.625V44.625C15.75 46.0724 16.9276 47.25 18.375 47.25H53.375C54.8224 47.25 56 46.0724 56 44.625V23.625C56 22.1776 54.8224 21 53.375 21Z" fill="black"/>
<path d="M18.375 27.125H14C13.5168 27.125 13.125 27.5168 13.125 28C13.125 28.4832 13.5168 28.875 14 28.875H18.375C18.8582 28.875 19.25 28.4832 19.25 28C19.25 27.5168 18.8582 27.125 18.375 27.125Z" fill="black"/>
<path d="M10.5 27.125H6.125C5.64178 27.125 5.25 27.5168 5.25 28C5.25 28.4832 5.64178 28.875 6.125 28.875H10.5C10.9832 28.875 11.375 28.4832 11.375 28C11.375 27.5168 10.9832 27.125 10.5 27.125Z" fill="black"/>
<path d="M34.125 27.125H29.75C29.2668 27.125 28.875 27.5168 28.875 28C28.875 28.4832 29.2668 28.875 29.75 28.875H34.125C34.6082 28.875 35 28.4832 35 28C35 27.5168 34.6082 27.125 34.125 27.125Z" fill="black"/>
<path d="M26.25 27.125H21.875C21.3918 27.125 21 27.5168 21 28C21 28.4832 21.3918 28.875 21.875 28.875H26.25C26.7332 28.875 27.125 28.4832 27.125 28C27.125 27.5168 26.7332 27.125 26.25 27.125Z" fill="black"/>
<path d="M9.625 13.125H7C5.55253 13.125 4.375 14.3026 4.375 15.75V16.625C4.375 18.0724 5.55253 19.25 7 19.25H9.625C11.0725 19.25 12.25 18.0724 12.25 16.625V15.75C12.25 14.3026 11.0725 13.125 9.625 13.125ZM10.5 16.625C10.5 17.1075 10.1075 17.5 9.625 17.5H7C6.51755 17.5 6.125 17.1075 6.125 16.625V15.75C6.125 15.2675 6.51755 14.875 7 14.875H9.625C10.1075 14.875 10.5 15.2675 10.5 15.75V16.625Z" fill="black"/>
<path d="M32.375 13.125C31.3304 13.125 30.3918 13.5856 29.75 14.3137C29.1082 13.5856 28.1696 13.125 27.125 13.125C25.1951 13.125 23.625 14.6951 23.625 16.625C23.625 18.5549 25.1951 20.125 27.125 20.125C28.1696 20.125 29.1082 19.6644 29.75 18.9363C30.3918 19.6644 31.3304 20.125 32.375 20.125C34.3049 20.125 35.875 18.5549 35.875 16.625C35.875 14.6951 34.3049 13.125 32.375 13.125ZM27.125 18.375C26.1601 18.375 25.375 17.5899 25.375 16.625C25.375 15.6601 26.1601 14.875 27.125 14.875C28.0899 14.875 28.875 15.6601 28.875 16.625C28.875 17.5899 28.0899 18.375 27.125 18.375ZM32.375 18.375C31.4101 18.375 30.625 17.5899 30.625 16.625C30.625 15.6601 31.4101 14.875 32.375 14.875C33.3399 14.875 34.125 15.6601 34.125 16.625C34.125 17.5899 33.3399 18.375 32.375 18.375Z" fill="black"/>
<path d="M42.875 26.25H52.5C52.9832 26.25 53.375 25.8582 53.375 25.375C53.375 24.8918 52.9832 24.5 52.5 24.5H42.875C42.3918 24.5 42 24.8918 42 25.375C42 25.8582 42.3918 26.25 42.875 26.25Z" fill="black"/>
<path d="M49.875 36.75H33.25C32.7668 36.75 32.375 37.1418 32.375 37.625C32.375 38.1082 32.7668 38.5 33.25 38.5H49.875C50.3582 38.5 50.75 38.1082 50.75 37.625C50.75 37.1418 50.3582 36.75 49.875 36.75Z" fill="black"/>
<path d="M49.875 40.25H39.375C38.8918 40.25 38.5 40.6418 38.5 41.125C38.5 41.6082 38.8918 42 39.375 42H49.875C50.3582 42 50.75 41.6082 50.75 41.125C50.75 40.6418 50.3582 40.25 49.875 40.25Z" fill="black"/>
</svg>
