<svg width="46" height="58" viewBox="0 0 46 58" fill="none" xmlns="http://www.w3.org/2000/svg">
<g clip-path="url(#clip0_10_5544)">
<path d="M45.8109 17.3579C45.8204 17.3423 45.829 17.3262 45.8373 17.3102C45.8444 17.2967 45.8513 17.2831 45.8574 17.2696C45.8639 17.2552 45.8694 17.2405 45.875 17.2257C45.8809 17.21 45.8867 17.1942 45.8914 17.1783C45.8953 17.1652 45.8985 17.152 45.9017 17.1387C45.9061 17.1208 45.91 17.1029 45.9129 17.0848C45.9148 17.0728 45.9161 17.0606 45.9175 17.0485C45.9195 17.0292 45.921 17.0099 45.9214 16.9906C45.9215 16.9851 45.9226 16.9797 45.9226 16.9741C45.9224 7.61454 35.6396 0 23.0003 0C10.3609 0 0.078125 7.61454 0.078125 16.9741C0.078125 16.9796 0.0791406 16.9851 0.0793098 16.9906C0.0798173 17.0099 0.0811698 17.0292 0.0831998 17.0485C0.0845531 17.0606 0.0857374 17.0728 0.0877674 17.0848C0.0906432 17.1029 0.0945344 17.1208 0.0989327 17.1387C0.102147 17.152 0.105191 17.1651 0.109251 17.1783C0.113988 17.1942 0.11974 17.21 0.125661 17.2257C0.131243 17.2404 0.136826 17.2551 0.143255 17.2695C0.149345 17.2831 0.156449 17.2967 0.163385 17.3103C0.171674 17.3263 0.180302 17.3423 0.189776 17.3579C0.19705 17.3698 0.204831 17.3815 0.212782 17.3932C0.223947 17.4098 0.23545 17.4261 0.247968 17.442C0.252028 17.4471 0.255074 17.4524 0.259134 17.4575L14.0963 34.5351C13.8558 34.649 13.6298 34.7826 13.423 34.9357C12.6721 35.4916 12.2585 36.231 12.2585 37.0173C12.2585 37.8036 12.6719 38.5429 13.4229 39.0989C13.993 39.5211 15.8529 40.3189 17.7806 41.0886H10.8202C9.37436 41.0886 8.19814 41.9596 8.19814 43.0302V46.0367C8.19814 46.5556 8.76604 46.9762 9.46689 46.9762H9.55148V56.0583C9.55148 57.129 10.7277 58 12.1736 58H33.8269C35.2728 58 36.449 57.129 36.449 56.0583V46.9762H36.5336C37.2345 46.9762 37.8024 46.5556 37.8024 46.0367V43.0302C37.8024 41.9596 36.6262 41.0886 35.1803 41.0886H28.2202C30.1479 40.3188 32.0077 39.5211 32.5778 39.0989C33.3287 38.5429 33.7424 37.8036 33.7424 37.0173C33.7424 36.231 33.3289 35.4916 32.578 34.9357C32.3711 34.7825 32.1449 34.649 31.9045 34.5349L45.7417 17.4574C45.7458 17.4522 45.749 17.447 45.7529 17.4418C45.7652 17.4259 45.7769 17.4095 45.7881 17.393C45.7958 17.3813 45.8038 17.3697 45.8109 17.3579V17.3579ZM28.1171 34.338L35.0372 17.2567C35.0383 17.2539 35.0394 17.2511 35.0405 17.2483L35.0422 17.244C35.0444 17.2387 35.0456 17.2331 35.0477 17.2276C35.0566 17.2038 35.0651 17.18 35.0715 17.1556C35.0754 17.1407 35.0778 17.1259 35.0806 17.1111C35.0837 17.0957 35.0874 17.0806 35.0894 17.0649C35.0927 17.0407 35.0937 17.0167 35.0943 16.9925C35.0945 16.9864 35.0955 16.9803 35.0955 16.9741C35.0955 16.7004 36.5206 15.9093 39.2401 15.9093C41.5682 15.9093 42.9442 16.4883 43.293 16.8269L29.3022 34.0941C28.889 34.1294 28.4901 34.2119 28.1171 34.338V34.338ZM16.6981 34.094L2.70732 16.8268C3.05614 16.4882 4.43215 15.9092 6.76022 15.9092C9.47975 15.9092 10.9048 16.7002 10.9048 16.974C10.9048 16.9802 10.9058 16.9862 10.906 16.9924C10.9067 17.0164 10.9077 17.0406 10.9109 17.0648C10.9129 17.0804 10.9167 17.0956 10.9197 17.111C10.9227 17.1259 10.9249 17.1407 10.9288 17.1555C10.9353 17.1799 10.9437 17.2038 10.9527 17.2275C10.9547 17.2329 10.9559 17.2384 10.9581 17.2439L10.9598 17.2483C10.961 17.2511 10.962 17.2538 10.9632 17.2566L17.8831 34.3379C17.5104 34.2119 17.1114 34.1294 16.6981 34.094V34.094ZM24.269 16.9741C24.269 16.7004 25.6941 15.9093 28.4136 15.9093C30.9278 15.9093 32.3329 16.5846 32.5311 16.9031L24.269 37.297V16.9741V16.9741ZM21.7315 37.2971L13.4694 16.9031C13.6677 16.5846 15.0728 15.9093 17.5869 15.9093C20.3064 15.9093 21.7315 16.7004 21.7315 16.9741V37.2971ZM23.0003 1.87905C33.1251 1.87905 41.5479 7.37377 43.1201 14.5475C42.0403 14.2194 40.7107 14.0302 39.2403 14.0302C36.9633 14.0302 35.0213 14.4823 33.8269 15.2045C32.6326 14.4823 30.6906 14.0302 28.4136 14.0302C26.1366 14.0302 24.1946 14.4823 23.0003 15.2045C21.8059 14.4823 19.8639 14.0302 17.5869 14.0302C15.3099 14.0302 13.3679 14.4823 12.1736 15.2045C10.9792 14.4823 9.03721 14.0302 6.76022 14.0302C5.28982 14.0302 3.96017 14.2194 2.88038 14.5475C4.45262 7.37377 12.8754 1.87905 23.0003 1.87905ZM14.7957 37.0173C14.7957 36.7329 14.9452 36.4656 15.2169 36.2644C15.4884 36.0633 15.8494 35.9525 16.2336 35.9525C16.6178 35.9525 16.9786 36.0632 17.2503 36.2644H17.2504C17.6346 36.5508 18.8056 38.0807 20.0745 39.8614C17.6695 38.9219 15.6036 38.0548 15.2167 37.77C14.9452 37.569 14.7957 37.3016 14.7957 37.0173V37.0173ZM10.7356 43.0302C10.7356 42.9957 10.7737 42.9676 10.8202 42.9676H21.7315V45.0972H10.7356V43.0302ZM12.089 56.0583V46.9762H21.7315V56.121H12.1736C12.127 56.121 12.089 56.0929 12.089 56.0583ZM33.9115 56.0583C33.9115 56.0929 33.8735 56.121 33.8269 56.121H24.269V46.9762H33.9115V56.0583ZM35.2649 43.0302V45.0972H24.269V42.9676H35.1803C35.2268 42.9676 35.2649 42.9957 35.2649 43.0302ZM30.7836 37.7702C30.3971 38.0548 28.331 38.9218 25.9262 39.8614C27.1951 38.0806 28.3659 36.5508 28.7501 36.2644H28.7502C29.0218 36.0633 29.3828 35.9525 29.7669 35.9525C30.1511 35.9525 30.5119 36.0632 30.7838 36.2644C31.0553 36.4655 31.2049 36.7329 31.2049 37.0173C31.2049 37.3016 31.0553 37.569 30.7836 37.7702V37.7702Z" fill="black"/>
</g>
<defs>
<clipPath id="clip0_10_5544">
<rect width="46" height="58" fill="white"/>
</clipPath>
</defs>
</svg>
