<svg width="60" height="60" viewBox="0 0 60 60" fill="none" xmlns="http://www.w3.org/2000/svg">
<path d="M30 55.3454C29.6824 55.3454 29.3646 55.2727 29.0729 55.1267C28.779 54.9796 21.7945 51.4602 14.7093 45.556C10.5024 42.0503 7.13859 38.4269 4.71172 34.7863C1.58525 30.0968 0 25.3543 0 20.6911C0 11.8485 7.19394 4.65454 16.0366 4.65454C22.0172 4.65454 27.2434 7.94464 30 12.8105C32.7566 7.94464 37.983 4.65454 43.9634 4.65454C52.8059 4.65454 60 11.8485 60 20.6911C60 25.3543 58.4147 30.0968 55.2883 34.7863C52.8612 38.4269 49.4976 42.0503 45.2907 45.5562C38.2057 51.4604 31.221 54.9798 30.9271 55.1267C30.6354 55.2727 30.3176 55.3454 30 55.3454ZM16.0366 8.8008C9.4804 8.8008 4.14646 14.1347 4.14646 20.6909C4.14646 35.9901 25.2745 48.3537 29.9994 50.9263C34.7224 48.3505 55.8537 35.9679 55.8537 20.6909C55.8537 14.1347 50.5198 8.8008 43.9636 8.8008C37.4073 8.8008 32.0735 14.1347 32.0735 20.6909C32.0735 21.8358 31.1451 22.7642 30.0002 22.7642C28.8554 22.7642 27.9269 21.8358 27.9269 20.6909C27.9267 14.1349 22.5929 8.8008 16.0366 8.8008Z" fill="black"/>
</svg>
