<svg width="56" height="56" viewBox="0 0 56 56" fill="none" xmlns="http://www.w3.org/2000/svg">
<g clip-path="url(#clip0_10_5510)">
<path d="M55.8583 32.8949C55.7884 32.777 55.6963 32.6812 55.594 32.6022C55.5312 32.4175 55.4366 32.2456 55.282 32.1192C55.0379 31.9197 54.7145 31.8376 54.408 31.9032C54.3429 31.914 47.9901 33.1399 40.5588 29.1691C39.1551 28.419 37.8105 27.1639 36.5071 25.6355L36.4519 25.4976L36.4042 25.5167C35.2094 24.1002 34.0495 22.4555 32.91 20.7589L32.1888 19.1725L31.9325 19.2887C31.7711 19.0437 31.6097 18.7985 31.4489 18.5541C27.5501 12.6254 23.8678 7.02533 18.9233 7.02533C13.708 7.02533 3.48059 14.2592 0.72462 23.1727C-0.848151 28.2593 -0.626229 35.7563 9.36278 42.5859C16.3446 47.3593 23.5944 48.9747 30.2143 48.9747C43.9887 48.9747 55.0265 41.9761 55.1891 41.8709C55.488 41.6771 55.6684 41.3455 55.6684 40.9895V34.1733C56.0114 33.8431 56.1117 33.3226 55.8583 32.8949ZM18.9233 9.12548C21.4801 9.12548 23.9133 11.5498 26.2708 14.7136L10.3235 22.1555L11.2115 24.0584L27.5143 16.4506C28.2471 17.5107 28.9737 18.6121 29.6946 19.7084C29.7952 19.8615 29.8966 20.0152 29.9975 20.1687L18.7281 25.2911L19.597 27.2028L31.1741 21.9404C32.2067 23.4779 33.2609 24.9805 34.3583 26.3353L24.0036 30.4771L24.7833 32.4266L35.8223 28.0112C37.0077 29.2666 38.2483 30.3148 39.5699 31.0209C39.8623 31.1772 40.1513 31.3193 40.4403 31.4611L32.4943 33.4479L33.0041 35.4852L43.4406 32.8759L43.3988 32.7085C46.4296 33.782 49.1162 34.131 51.1229 34.1915C42.795 37.9218 20.4929 44.954 2.79011 23.7405C2.7813 23.7299 2.76823 23.7257 2.75913 23.7155C5.41423 15.2827 14.9452 9.12548 18.9233 9.12548ZM53.5686 40.3988C50.1602 42.3986 29.2578 53.6461 10.548 40.8525C4.40294 36.6511 1.56144 31.6444 2.20618 26.2523C11.8451 37.1305 22.8025 40.3044 32.269 40.3044C41.9252 40.3044 50.0221 37.0262 53.5686 35.3275V40.3988Z" fill="black"/>
</g>
<defs>
<clipPath id="clip0_10_5510">
<rect width="56" height="56" fill="white"/>
</clipPath>
</defs>
</svg>
