<svg width="40" height="42" viewBox="0 0 40 42" fill="none" xmlns="http://www.w3.org/2000/svg">
<path d="M0 23.9984C0 33.3139 7.82723 40.9786 17.8723 41.9375L21.2766 42C31.7268 41.4052 40 33.5758 40 23.9993C40 14.5934 32.0187 6.8713 21.8323 6.03657C22.9864 3.80528 26.3115 3.58392 26.3115 3.58392C23.737 2.96886 22.0494 3.23161 20.9464 3.7774C20.5055 0.971596 19.7872 0 19.7872 0C19.7872 0 19.0689 0.971596 18.6272 3.77571C17.5243 3.23077 15.8374 2.96717 13.2621 3.58223C13.2621 3.58223 16.6264 3.80443 17.7617 6.07205C7.77021 7.0766 0 14.7167 0 23.9984Z" fill="#D13834"/>
</svg>
